<svg xmlns="http://www.w3.org/2000/svg" viewBox="0 0 30 30"><defs><style>.a{fill:none;stroke:gray;stroke-miterlimit:10;stroke-width:2px;}.b{fill:gray;}</style></defs><title>add-icon</title><rect class="a" x="1" y="1" width="28" height="28" rx="2.88" ry="2.88"/><path class="b" d="M22.83,14.12v2.42a.5.5,0,0,1-.57.56h-5a.19.19,0,0,0-.21.22v4.93a.5.5,0,0,1-.57.57H14.09a.5.5,0,0,1-.57-.57V17.32a.19.19,0,0,0-.21-.22h-5a.5.5,0,0,1-.57-.56V14.12a.5.5,0,0,1,.57-.57h5a.19.19,0,0,0,.21-.21V8.26a.5.5,0,0,1,.57-.57h2.38a.5.5,0,0,1,.57.57v5.08a.19.19,0,0,0,.21.21h5A.5.5,0,0,1,22.83,14.12Z"/></svg>