<svg xmlns="http://www.w3.org/2000/svg" viewBox="0 0 25 25.04"><defs><style>.a{fill:gray;}.b{fill:#d2d2d2;}.c{fill:#cbcbcb;}.d{fill:#d7d7d7;}.e{fill:#d0d0d0;}.f{fill:#ccc;}.g{fill:#d3d3d3;}.h{fill:#f7f7f7;}.i{fill:#505050;}.j{fill:#f2f2f2;}.k{fill:#c7c7c7;}.l{fill:none;stroke:#f15a24;stroke-miterlimit:10;stroke-width:2px;}</style></defs><title>chart-gear</title><path class="a" d="M9.1,25,6.87,24l-.74-.31a.47.47,0,0,1-.29-.68,7.89,7.89,0,0,0,.44-1.14,2.49,2.49,0,0,0-.63-2.34,2.58,2.58,0,0,0-2.1-.9A3,3,0,0,0,2.33,19s-.1,0-.15.06l-.29.11a.43.43,0,0,1-.58-.25L0,15.88a.44.44,0,0,1,.26-.61L1,15a2.6,2.6,0,0,0,1.66-2.63A2.51,2.51,0,0,0,1,10l-.7-.29A.46.46,0,0,1,.05,9.1c.41-1,.82-2,1.22-2.94.15-.35.33-.44.69-.32,0,0,.11,0,.16.06L2.33,6l.16.07A2.68,2.68,0,0,0,6.35,3.6a3.27,3.27,0,0,0-.3-1.14C6,2.28,5.9,2.1,5.83,1.92a.45.45,0,0,1,.25-.62l3-1.25A.44.44,0,0,1,9.74.3a10.63,10.63,0,0,0,.44,1,2.56,2.56,0,0,0,2.44,1.33,2.47,2.47,0,0,0,2.26-1.45c.14-.28.24-.58.37-.87a.45.45,0,0,1,.67-.28l3,1.23a.46.46,0,0,1,.27.65,7.89,7.89,0,0,0-.44,1.14,2.52,2.52,0,0,0,.88,2.61,2.49,2.49,0,0,0,2.74.44l.73-.3a.43.43,0,0,1,.61.25c.43,1,.85,2,1.27,3.05a.44.44,0,0,1-.26.61l-.81.33a2.6,2.6,0,0,0-1.56,2.31,2.65,2.65,0,0,0,.87,2.13,4.2,4.2,0,0,0,1.2.64l.28.11a.46.46,0,0,1,.27.65L24,18.16c-.11.25-.21.5-.31.75a.46.46,0,0,1-.64.27l-.26-.1s-.11,0-.16-.07a3.08,3.08,0,0,0-1.43-.35,2.69,2.69,0,0,0-2.4,3.57,6.14,6.14,0,0,0,.25.59c0,.05,0,.11.06.16s0,.08.05.13a.45.45,0,0,1-.26.6l-3,1.26a.45.45,0,0,1-.62-.26c-.11-.26-.21-.52-.33-.78a2.49,2.49,0,0,0-2.32-1.58A2.53,2.53,0,0,0,10,24.13c-.07.18-.15.35-.22.53a.7.7,0,0,1-.23.31A.44.44,0,0,1,9.1,25Z"/><path class="b" d="M9.1,25a.79.79,0,0,0,.43,0A.38.38,0,0,1,9.1,25Z"/><path class="c" d="M2.18,19.08A.2.2,0,0,1,2.33,19,.15.15,0,0,1,2.18,19.08Z"/><path class="d" d="M22.65,19a.29.29,0,0,1,.16.07A.15.15,0,0,1,22.65,19Z"/><path class="e" d="M2.49,6.06A.21.21,0,0,1,2.33,6,.19.19,0,0,1,2.49,6.06Z"/><path class="f" d="M19.13,23a.25.25,0,0,1-.06-.16A.16.16,0,0,1,19.13,23Z"/><path class="g" d="M2.12,5.9A.23.23,0,0,1,2,5.84.17.17,0,0,1,2.12,5.9Z"/><path class="f" d="M8.4,17a5.2,5.2,0,0,1-1.21-1.51,6,6,0,0,1,.23-6.39A4.23,4.23,0,0,1,8.47,8a.7.7,0,0,0,.16-.14l.11-.09a1.21,1.21,0,0,0,.32-.22,6.76,6.76,0,0,1,2.09-.93,6,6,0,0,1,7.36,4.83,5.79,5.79,0,0,1-1.64,5.29,6.32,6.32,0,0,1-2.69,1.57c-.12,0-.23.05-.35.1a5.9,5.9,0,0,1-2.05.17,4.14,4.14,0,0,1-1.25-.29A5.5,5.5,0,0,0,9.9,18s-.05,0-.06,0a.66.66,0,0,0-.25-.13h0c0-.07,0,0-.06,0h0a.5.5,0,0,0-.22-.13h0a.61.61,0,0,0-.26-.19c-.17-.1-.29-.26-.46-.35S8.5,17,8.4,17Z"/><path class="h" d="M8.4,17c.06,0,.14-.07.14.06s0,0,.06.05a.53.53,0,0,1,.23.19c0,.05.09.12.18.09s0,0,.05,0a.34.34,0,0,0,.23.19c.05,0,0,0,0,.07A4,4,0,0,1,8.4,17Z"/><path class="h" d="M9.9,18a1.37,1.37,0,0,1,.63.25A2.3,2.3,0,0,1,9.9,18Z"/><path class="i" d="M12.06,22.3h0Z"/><path class="i" d="M18.6,21.66v-.61h0v.61Z"/><path class="j" d="M9.06,7.54a.49.49,0,0,1-.32.22A1.81,1.81,0,0,1,9.06,7.54Z"/><path class="k" d="M13.83,18.4a.74.74,0,0,1,.35-.1A.83.83,0,0,1,13.83,18.4Z"/><path class="h" d="M9.59,17.87c.11,0,.2,0,.25.13A.6.6,0,0,1,9.59,17.87Z"/><path class="h" d="M9.31,17.71c.12,0,.17.05.22.13A.71.71,0,0,1,9.31,17.71Z"/><path class="j" d="M8.63,7.85A.19.19,0,0,1,8.47,8,.44.44,0,0,1,8.63,7.85Z"/><path class="h" d="M9.53,17.84s.06-.05.1,0l0,.06A.09.09,0,0,1,9.53,17.84Z"/><circle class="l" cx="12.5" cy="12.44" r="6.25"/></svg>