<svg xmlns="http://www.w3.org/2000/svg" viewBox="0 0 27.5 26.29"><defs><style>.a{fill:gray;}</style></defs><title>edit-icon</title><path class="a" d="M24,0a2.77,2.77,0,0,1,1,.7c.67.68,1.35,1.34,2,2a1.31,1.31,0,0,1,0,2.06c-.55.55-1.12,1.1-1.66,1.66-.16.16-.23.15-.38,0C23.66,5.12,22.35,3.82,21,2.51c-.13-.13-.15-.2,0-.35L22.77.43A2.28,2.28,0,0,1,23.46,0Z"/><path class="a" d="M.06,24.59H0V6.25H.06c.18.18.12.41.12.63q0,4.77,0,9.54c0,2.52,0,5,0,7.57C.18,24.2.23,24.42.06,24.59Z"/><path class="a" d="M.06,24.59s0-.07,0-.1V6.42c0-.06,0-.11,0-.17A1.81,1.81,0,0,1,1.89,4.5h15.2c-.37.37-.71.7-1,1-.51.51-1,1-1.54,1.54a.67.67,0,0,1-.55.22H3.22c-.3,0-.36.08-.36.36q0,7.73,0,15.46c0,.28.05.36.36.36q7.74,0,15.48,0c.31,0,.36-.08.36-.36q0-4.26,0-8.5a.67.67,0,0,1,.22-.55c.85-.84,1.69-1.68,2.53-2.53a.37.37,0,0,1,.06.29V24.34a1.83,1.83,0,0,1-1.35,1.9,1.8,1.8,0,0,1-.52,0h-18A1.8,1.8,0,0,1,.06,24.59Z"/><path class="a" d="M24.22,7.54,24,7.77l-7.11,7.09c-1.42,1.42-2.85,2.84-4.27,4.27-.16.16-.24.19-.42,0q-1.93-2-3.88-3.87c-.17-.17-.18-.26,0-.43Q14,9.16,19.72,3.45c.17-.17.26-.17.43,0L24,7.33Z"/><path class="a" d="M7.17,16l4.22,4.23-5.12.9Z"/></svg>