<svg xmlns="http://www.w3.org/2000/svg" viewBox="0 0 30 30"><defs><style>.a{fill:none;stroke:gray;stroke-miterlimit:10;stroke-width:2px;}.b{fill:gray;}</style></defs><title>list-icon</title><rect class="a" x="1" y="1" width="28" height="28" rx="2.88" ry="2.88"/><path class="b" d="M23.69,12.93,17.28,21.4a1.08,1.08,0,0,1-.89.3h-3.3a1.07,1.07,0,0,1-.88-.3L5.75,12.93a.27.27,0,0,1,0-.16c0-.17.21-.25.65-.25h3a1.07,1.07,0,0,1,.88.3l4.27,6a.18.18,0,0,0,.17.12.29.29,0,0,0,.21-.12l4.22-6a1.08,1.08,0,0,1,.89-.3h3.06C23.67,12.52,23.87,12.66,23.69,12.93Z"/></svg>