<svg xmlns="http://www.w3.org/2000/svg" viewBox="0 0 23 25.89"><defs><style>.a{fill:gray;}.b{fill:#e6e6e6;}</style></defs><title>preview-icon</title><path class="a" d="M0,24.15V1.73a1.5,1.5,0,0,1,.19-.62A2.07,2.07,0,0,1,1.55,0,2,2,0,0,1,2,0H14.69a2.71,2.71,0,0,1,1.37.38A13.17,13.17,0,0,1,18.35,2a24.81,24.81,0,0,1,1.83,1.72,19,19,0,0,1,2.14,2.59,4.87,4.87,0,0,1,.59,1.16,1.71,1.71,0,0,1,.09.55V23.9a1.9,1.9,0,0,1-.45,1.23,2,2,0,0,1-.89.64,2.08,2.08,0,0,1-.74.11H2.17a.33.33,0,0,0-.17,0H2c-.12,0-.25,0-.36,0A2,2,0,0,1,0,24.39,1,1,0,0,0,0,24.15Z"/><path class="b" d="M1.64,12.93V2.15c0-.37.15-.52.51-.52H14.61c.14,0,.16,0,.16.16V7.2a.82.82,0,0,0,.89.89h5.52c.14,0,.16,0,.16.16v15.5c0,.35-.16.5-.51.5H2.14c-.35,0-.5-.15-.5-.5Z"/><path class="a" d="M3.88,13.09A5.53,5.53,0,0,1,7.72,7.8a5.57,5.57,0,0,1,6,1.47,5.21,5.21,0,0,1,1.49,3.13,5.45,5.45,0,0,1-1.12,4.08c-.07.09,0,.13,0,.21l4.46,4.38a.45.45,0,0,1,0,.76l-.51.5a.45.45,0,0,1-.7,0l-4.53-4.46c-.07-.08-.12-.08-.2,0a5,5,0,0,1-2.4.81,5.84,5.84,0,0,1-2.84-.4A5.53,5.53,0,0,1,4,14,4.18,4.18,0,0,1,3.88,13.09Z"/><path class="b" d="M5.85,13.09a3.72,3.72,0,1,1,3.72,3.67A3.69,3.69,0,0,1,5.85,13.09Z"/></svg>